PathFileType	4	(X/Y/Z)	output.trc
DataRate	CameraRate	NumFrames	NumMarkers	Units	OrigDataRate	OrigDataStartFrame	OrigNumFrames
128	128	10	47	mm	128	751	1000
Frame#	Time	C7			LSHO			RSHO			CLAV			T10			LUPA			RELB			LELB			LFRA			RFRA			RWRB			RWRA			RFIN			LWRB			LWRA			LFIN			RASI			LASI			RPSI			LPSI			RANK			LANK			LMMA			LHEE			LTOE			RMMA			RHEE			RTOE			RMT5			LMT5			RKNE			LKNE			LMFC			RMFC			RFM2			LFM2			RTP2			RTP3			RTA3			LTP2			LTP3			LTA3			LBHD			RBHD			RFHD			RGTR			LGTR			
		X1	Y1	Z1	X2	Y2	Z2	X3	Y3	Z3	X4	Y4	Z4	X5	Y5	Z5	X6	Y6	Z6	X7	Y7	Z7	X8	Y8	Z8	X9	Y9	Z9	X10	Y10	Z10	X11	Y11	Z11	X12	Y12	Z12	X13	Y13	Z13	X14	Y14	Z14	X15	Y15	Z15	X16	Y16	Z16	X17	Y17	Z17	X18	Y18	Z18	X19	Y19	Z19	X20	Y20	Z20	X21	Y21	Z21	X22	Y22	Z22	X23	Y23	Z23	X24	Y24	Z24	X25	Y25	Z25	X26	Y26	Z26	X27	Y27	Z27	X28	Y28	Z28	X29	Y29	Z29	X30	Y30	Z30	X31	Y31	Z31	X32	Y32	Z32	X33	Y33	Z33	X34	Y34	Z34	X35	Y35	Z35	X36	Y36	Z36	X37	Y37	Z37	X38	Y38	Z38	X39	Y39	Z39	X40	Y40	Z40	X41	Y41	Z41	X42	Y42	Z42	X43	Y43	Z43	X44	Y44	Z44	X45	Y45	Z45	X46	Y46	Z46	X47	Y47	Z47	

751	5.85938	1333.48407	1333.15791	1313.83352	1179.84981	1276.04702	1201.99057	1008.07327	1013.34790	874.89486	853.83846	697.58150	707.33938	613.74282	713.35428	719.12791	612.92522	986.24433	991.79433	1177.44290	1180.80663	65.21231	67.54653	80.35167	27.14814	38.46111	52.88244	23.43131	35.08297	25.80408	25.05701	504.17486	511.27926	513.57542	522.06368	595.00628	640.28914	275.46004	326.42021	301.77295	292.50547	355.82313	311.60856	1226.82516	1626.82516	1256.82516	1226.82516	1626.82516	1396.82516	1426.82516	1626.82516	1396.82516	697.58150	713.35428	
752	5.86719	1333.56340	1333.13247	1313.83811	1179.86036	1276.00221	1202.02170	1008.11538	1013.34222	874.88663	853.86508	697.63614	707.35514	613.77114	713.37269	719.08234	612.91050	986.32470	991.88006	1177.43727	1180.80257	65.17675	67.54777	80.36051	27.14487	38.42530	52.91029	23.40229	35.14617	25.79514	25.03473	504.19331	511.31659	513.56898	522.06316	595.00567	640.26528	275.43406	326.43688	301.79744	292.47628	355.81595	311.57576	1226.84466	1626.84466	1256.84466	1226.84466	1626.84466	1396.84466	1426.84466	1626.84466	1396.84466	697.63614	713.37269	
753	5.87500	1333.61607	1333.16142	1313.88234	1179.89627	1276.03204	1202.08766	1008.11399	1013.39249	874.91149	853.92108	697.69918	707.40686	613.80959	713.41213	719.07031	612.90459	986.40283	991.96354	1177.43713	1180.80571	65.16837	67.52247	80.36302	27.15868	38.44301	52.86189	23.43044	35.06189	25.78412	25.04351	504.19193	511.32853	513.60324	522.02533	595.02437	640.35046	275.41040	326.46941	301.78090	292.48184	355.84362	311.60101	1226.88661	1626.88661	1256.88661	1226.88661	1626.88661	1396.88661	1426.88661	1626.88661	1396.88661	697.69918	713.41213	
754	5.88281	1333.66852	1333.20578	1313.92116	1179.95487	1276.05835	1202.13304	1008.19682	1013.38418	874.94243	854.00876	697.74559	707.48974	613.86093	713.42396	719.10912	612.89761	986.73642	992.30248	1177.42190	1180.78318	65.17991	67.52014	80.33522	27.16482	38.46374	52.90806	23.37210	35.09366	25.79615	25.04508	504.19754	511.27979	513.64125	522.06876	595.04148	640.42093	275.43901	326.43419	301.80069	292.47632	355.83139	311.65956	1226.93182	1626.93182	1256.93182	1226.93182	1626.93182	1396.93182	1426.93182	1626.93182	1396.93182	697.74559	713.42396	
755	5.89062	1333.78657	1333.27766	1313.98953	1180.09953	1276.10772	1202.18857	1008.30409	1013.43220	874.95638	854.04279	697.81693	707.55202	613.97202	713.43419	719.09866	612.92229	986.47576	992.04717	1177.46072	1180.81213	65.18189	67.54674	80.35537	27.14580	38.50478	52.90409	23.43263	35.06831	25.78744	25.02282	504.20995	511.31879	513.59326	522.10092	595.05169	640.28270	275.44809	326.73088	302.12592	292.47269	355.80911	311.59774	1227.01792	1627.01792	1257.01792	1227.01792	1627.01792	1397.01792	1427.01792	1627.01792	1397.01792	697.81693	713.43419	
756	5.89844	1333.88332	1333.33627	1314.08754	1180.19112	1276.14485	1202.22772	1008.35509	1013.44710	874.96589	854.12450	697.87344	707.59861	613.99629	713.46639	719.10306	612.92843	986.46160	992.03837	1177.48324	1180.80949	65.20159	67.54836	80.39023	27.16593	38.46003	52.89404	23.45069	35.12720	25.76940	25.08146	504.19087	511.30787	513.60230	522.16424	595.05072	640.24936	275.47101	326.73314	302.13801	292.47378	355.79852	311.62690	1227.10238	1627.10238	1257.10238	1227.10238	1627.10238	1397.10238	1427.10238	1627.10238	1397.10238	697.87344	713.46639	
757	5.90625	1333.96291	1333.39151	1314.19146	1180.23291	1276.13237	1202.28928	1008.42717	1013.49217	875.01808	854.21784	697.95128	707.68139	614.05609	713.47198	719.13848	612.95164	986.37350	991.95562	1177.50137	1180.86326	65.21515	67.53221	80.39209	27.16104	38.46217	52.90886	23.48366	35.14724	25.77535	25.04911	504.18724	511.34469	513.58753	522.16247	595.09518	640.33089	275.47851	326.80201	302.10355	292.45610	355.79557	311.56171	1227.18196	1627.18196	1257.18196	1227.18196	1627.18196	1397.18196	1427.18196	1627.18196	1397.18196	697.95128	713.47198	
758	5.91406	1334.07509	1333.47473	1314.24321	1180.28972	1276.19067	1202.38592	1008.43281	1013.49909	875.00129	854.33063	698.01429	707.75293	614.16979	713.50462	719.17479	612.95684	986.58013	992.16760	1177.47410	1180.85899	65.20968	67.52193	80.38450	27.13521	38.46485	52.88615	23.43107	35.09623	25.76759	25.03173	504.20631	511.36454	513.58795	522.13198	595.09423	640.37325	275.44404	326.78994	302.14595	292.45001	355.83684	311.56025	1227.26434	1627.26434	1257.26434	1227.26434	1627.26434	1397.26434	1427.26434	1627.26434	1397.26434	698.01429	713.50462	
759	5.92188	1334.18735	1333.55872	1314.34061	1180.36659	1276.21230	1202.42599	1008.53199	1013.50104	875.09399	854.36690	698.06610	707.80781	614.19408	713.53360	719.20030	612.98586	986.41715	992.00998	1177.48417	1180.84366	65.20359	67.50903	80.34647	27.16784	38.46052	52.87566	23.45441	35.14298	25.80411	25.05851	504.18619	511.40493	513.56536	522.15984	595.12791	640.46917	275.44404	326.81900	302.14493	292.46112	355.80512	311.65515	1227.36223	1627.36223	1257.36223	1227.36223	1627.36223	1397.36223	1427.36223	1627.36223	1397.36223	698.06610	713.53360	
760	5.92969	1334.38510	1333.62484	1314.47852	1180.51075	1276.26153	1202.48831	1008.55869	1013.55420	875.12928	854.48389	698.12484	707.89413	614.28712	713.57754	719.25076	613.07346	986.52604	992.12422	1177.47611	1180.83087	65.20862	67.53240	80.37219	27.16176	38.47832	52.86045	23.45570	35.11069	25.77838	25.03554	504.20036	511.38979	513.60842	522.15697	595.14528	640.46645	275.47337	326.79905	302.15373	292.50771	355.82518	311.65802	1227.49615	1627.49615	1257.49615	1227.49615	1627.49615	1397.49615	1427.49615	1627.49615	1397.49615	698.12484	713.57754	
